# xmcd
#
# Track frame offsets:
#	150
#	7172
#	10718
#	23768
#	39739
#	50006
#	57903
#	62382
#	80314
#	100398
#	116835
#
# Disc length: 1762 seconds
#
# Revision: 0
# Processed by: cddbd v1.5.2PL0 Copyright (c) Steve Scherf et al.
# Submitted via: dBpowerAMP V4.0
#
DISCID=8806e00b
DTITLE=B L A C K I E - Wilderness Of North America
DYEAR=2008
DGENRE=Hip-Hop
TTITLE0=That's Right
TTITLE1=Big Big Joke Jokes
TTITLE2=Regrets Of An Average African American Amateur Drug Lord
TTITLE3=B L A C K I E ... Is Still Alive
TTITLE4=I Write On Money
TTITLE5=Ox
TTITLE6=You Followed
TTITLE7=Knives Incorporated
TTITLE8=Filter
TTITLE9=Caught Lost
TTITLE10=Copy Coma Edit
EXTD=
EXTT0=
EXTT1=
EXTT2=
EXTT3=
EXTT4=
EXTT5=
EXTT6=
EXTT7=
EXTT8=
EXTT9=
EXTT10=
PLAYORDER=
